<svg version="1.1" xmlns="http://www.w3.org/2000/svg" xmlns:xlink="http://www.w3.org/1999/xlink" width="640px" height="512px" viewBox="0,0,256,204.79167"><g fill-opacity="0.21176" fill="#ffffff" fill-rule="nonzero" stroke="none" stroke-width="1" stroke-linecap="butt" stroke-linejoin="miter" stroke-miterlimit="10" stroke-dasharray="" stroke-dashoffset="0" font-family="none" font-weight="none" font-size="none" text-anchor="none" style="mix-blend-mode: normal"><g transform="translate(0.00007,-0.01368) scale(0.4,0.4)"><path d="M301.84,378.92c-0.3,0.6 -0.6,1.08 0,0zM550.97,291.92c-20.11269,-0.00652 -39.95746,4.61253 -58,13.5c-5.9,-11.9 -12,-22.3 -13,-30.1c-1.2,-9.1 -2.5,-14.5 -1.1,-25.3c1.4,-10.8 7.7,-26.1 7.6,-27.2c-0.1,-1.1 -1.4,-6.6 -14.3,-6.7c-12.9,-0.1 -24,2.5 -25.29,5.9c-2.27833,6.21349 -4.05077,12.60095 -5.3,19.1c-2.3,11.7 -25.79,53.5 -39.09,75.3c-4.4,-8.5 -8.1,-16 -8.9,-22c-1.2,-9.1 -2.5,-14.5 -1.1,-25.3c1.4,-10.8 7.7,-26.1 7.6,-27.2c-0.1,-1.1 -1.4,-6.6 -14.29,-6.7c-12.89,-0.1 -24,2.5 -25.3,5.9c-1.3,3.4 -2.7,11.4 -5.3,19.1c-2.6,7.7 -33.89,77.3 -42.08,95.4c-4.2,9.2 -7.8,16.6 -10.4,21.6c-0.4,0.8 -0.7,1.3 -0.9,1.7c0.3,-0.5 0.5,-1 0.5,-0.8c-2.2,4.3 -3.5,6.7 -3.5,6.7v0.1c-1.7,3.2 -3.6,6.1 -4.5,6.1c-0.6,0 -1.9,-8.4 0.3,-19.9c4.7,-24.2 15.8,-61.8 15.7,-63.1c-0.1,-0.7 2.1,-7.2 -7.3,-10.7c-9.1,-3.3 -12.4,2.2 -13.2,2.2c-0.8,0 -1.4,2 -1.4,2c0,0 10.1,-42.4 -19.39,-42.4c-18.4,0 -44,20.2 -56.58,38.5c-7.9,4.3 -25,13.6 -43,23.5c-6.9,3.8 -14,7.7 -20.7,11.4c-0.5,-0.5 -0.9,-1 -1.4,-1.5c-35.79,-38.2 -101.87,-65.2 -99.07,-116.5c1,-18.7 7.5,-67.8 127.07,-127.4c98,-48.8 176.35,-35.4 189.84,-5.6c19.4,42.5 -41.89,121.6 -143.66,133c-38.79,4.3 -59.18,-10.7 -64.28,-16.3c-5.3,-5.9 -6.1,-6.2 -8.1,-5.1c-3.3,1.8 -1.2,7 0,10.1c3,7.9 15.5,21.9 36.79,28.9c18.7,6.1 64.18,9.5 119.17,-11.8c61.78,-23.8 109.87,-90.1 95.77,-145.6c-14.36,-56.4 -107.88,-74.9 -196.31,-43.5c-52.69,18.7 -109.67,48.1 -150.66,86.4c-48.69,45.6 -56.48,85.3 -53.28,101.9c11.39,58.9 92.57,97.3 125.06,125.7c-1.6,0.9 -3.1,1.7 -4.5,2.5c-16.29,8.1 -78.18,40.5 -93.67,74.7c-17.5,38.8 2.9,66.6 16.29,70.4c41.79,11.6 84.58,-9.3 107.57,-43.6c22.99,-34.3 20.2,-79.1 9.6,-99.5c-0.1,-0.3 -0.3,-0.5 -0.4,-0.8c4.2,-2.5 8.5,-5 12.8,-7.5c8.29,-4.9 16.39,-9.4 23.49,-13.3c-4,10.8 -6.9,23.8 -8.4,42.6c-1.8,22 7.3,50.5 19.1,61.7c5.2,4.9 11.49,5 15.39,5c13.8,0 20,-11.4 26.89,-25c8.5,-16.6 16,-35.9 16,-35.9c0,0 -9.4,52.2 16.3,52.2c9.39,0 18.79,-12.1 23,-18.3v0.1c0,0 0.2,-0.4 0.7,-1.2c1,-1.5 1.5,-2.4 1.5,-2.4v-0.3c3.8,-6.5 12.1,-21.4 24.59,-46c16.2,-31.8 31.69,-71.5 31.69,-71.5c1.49682,8.72703 3.56799,17.34576 6.2,25.8c2.8,9.5 8.7,19.9 13.4,30c-3.8,5.2 -6.1,8.2 -6.1,8.2c0.00729,0.07679 0.04295,0.1481 0.1,0.2c-3,4 -6.4,8.3 -9.9,12.5c-12.79,15.2 -28,32.6 -30,37.6c-2.4,5.9 -1.8,10.3 2.8,13.7c3.4,2.6 9.4,3 15.69,2.5c11.5,-0.8 19.6,-3.6 23.5,-5.4c7.18979,-2.57814 13.98516,-6.1458 20.19,-10.6c12.5,-9.2 20.1,-22.4 19.4,-39.8c-0.4,-9.6 -3.5,-19.2 -7.3,-28.2c1.1,-1.6 2.3,-3.3 3.4,-5c19.79,-28.9 35.09,-60.62 35.09,-60.62c1.49682,8.72703 3.56799,17.34576 6.2,25.8c2.4,8.1 7.09,17 11.39,25.7c-18.59,15.1 -30.09,32.6 -34.09,44.1c-7.4,21.3 -1.6,30.9 9.3,33.1c4.9,1 11.9,-1.3 17.1,-3.5c7.72273,-2.57232 15.00435,-6.316 21.59,-11.1c12.5,-9.2 24.59,-22.1 23.79,-39.6c-0.3,-7.9 -2.5,-15.8 -5.4,-23.4c15.7,-6.6 36.09,-10.2 62.09,-7.2c55.68,6.5 66.58,41.3 64.48,55.8c-2.1,14.5 -13.8,22.6 -17.7,25c-3.9,2.4 -5.1,3.3 -4.8,5.1c0.5,2.6 2.3,2.5 5.6,1.9c4.6,-0.8 29.19,-11.8 30.29,-38.7c1.6,-34 -31.09,-71.4 -89,-71.1zM121.79,436.62c-18.39,20.1 -44.19,27.7 -55.28,21.3c-11.9,-6.92 -7.2,-36.5 15.49,-57.92c13.8,-13 31.59,-25 43.39,-32.4c2.7,-1.6 6.6,-4 11.4,-6.9c0.8,-0.5 1.2,-0.7 1.2,-0.7c0.9,-0.6 1.9,-1.1 2.9,-1.7c8.29,30.4 0.3,57.2 -19.1,78.3zM256.15,345.22c-6.4,15.7 -19.89,55.7 -28.09,53.6c-7,-1.8 -11.3,-32.3 -1.4,-62.3c5,-15.1 15.6,-33.1 21.9,-40.1c10.09,-11.3 21.19,-14.9 23.79,-10.4c3.5,5.9 -12.2,49.4 -16.2,59.2zM367.15,398.22c-2.7,1.4 -5.2,2.3 -6.4,1.6c-0.9,-0.5 1.1,-2.4 1.1,-2.4c0,0 13.9,-14.9 19.4,-21.7c3.2,-4 6.9,-8.7 10.89,-13.9c0,0.5 0.1,1 0.1,1.6c-0.13,17.9 -17.32,30 -25.12,34.8zM452.73,378.72c-2,-1.4 -1.7,-6.1 5,-20.7c2.6,-5.7 8.59,-15.3 19,-24.5c1.17839,3.48255 1.81908,7.12437 1.9,10.8c-0.1,22.5 -16.2,30.9 -25.89,34.4z"></path></g></g></svg>