<svg version="1.1" xmlns="http://www.w3.org/2000/svg" xmlns:xlink="http://www.w3.org/1999/xlink" width="448px" height="512px" viewBox="0,0,224,256"><g fill-opacity="0.21176" fill="#ffffff" fill-rule="nonzero" stroke="none" stroke-width="1" stroke-linecap="butt" stroke-linejoin="miter" stroke-miterlimit="10" stroke-dasharray="" stroke-dashoffset="0" font-family="none" font-weight="none" font-size="none" text-anchor="none" style="mix-blend-mode: normal"><g transform="scale(0.5,0.5)"><path d="M416,32h-384.1c-17.6,0 -31.9,14.5 -31.9,32.3v383.4c0,17.8 14.3,32.3 31.9,32.3h384.1c17.6,0 32,-14.5 32,-32.3v-383.4c0,-17.8 -14.4,-32.3 -32,-32.3zM135.4,416h-66.4v-213.8h66.5v213.8zM102.2,173c-21.3,0 -38.5,-17.3 -38.5,-38.5c0,-21.2 17.2,-38.5 38.5,-38.5c21.2,0 38.5,17.3 38.5,38.5c0,21.3 -17.2,38.5 -38.5,38.5zM384.3,416h-66.4v-104c0,-24.8 -0.5,-56.7 -34.5,-56.7c-34.6,0 -39.9,27 -39.9,54.9v105.8h-66.4v-213.8h63.7v29.2h0.9c8.9,-16.8 30.6,-34.5 62.9,-34.5c67.2,0 79.7,44.3 79.7,101.9z"></path></g></g></svg>