<svg version="1.1" xmlns="http://www.w3.org/2000/svg" xmlns:xlink="http://www.w3.org/1999/xlink" width="576px" height="512px" viewBox="0,0,256,227.55209"><g fill-opacity="0.21176" fill="#ffffff" fill-rule="nonzero" stroke="none" stroke-width="1" stroke-linecap="butt" stroke-linejoin="miter" stroke-miterlimit="10" stroke-dasharray="" stroke-dashoffset="0" font-family="none" font-weight="none" font-size="none" text-anchor="none" style="mix-blend-mode: normal"><g transform="translate(0,0.02049) scale(0.44444,0.44444)"><path d="M333.5,201.4c0,-22.1 -15.6,-34.3 -43,-34.3h-50.4v71.2h42.5c32.8,-0.1 50.9,-13.3 50.9,-36.9zM517,188.6c-9.5,-30.9 -10.9,-68.8 -9.8,-98.1c1.1,-30.5 -22.7,-58.5 -54.7,-58.5h-328.8c-32.1,0 -55.8,28.1 -54.7,58.5c1,29.3 -0.3,67.2 -9.8,98.1c-9.6,31 -25.7,50.6 -52.2,53.1v28.5c26.4,2.5 42.6,22.1 52.2,53.1c9.5,30.9 10.9,68.8 9.8,98.1c-1.1,30.5 22.7,58.5 54.7,58.5h328.7c32.1,0 55.8,-28.1 54.7,-58.5c-1,-29.3 0.3,-67.2 9.8,-98.1c9.6,-31 25.7,-50.6 52.1,-53.1v-28.5c-26.3,-2.5 -42.5,-22.1 -52,-53.1zM300.2,375.1h-97.9v-238.3h97.4c43.3,0 71.7,23.4 71.7,59.4c0,25.3 -19.1,47.9 -43.5,51.8v1.3c33.2,3.6 55.5,26.6 55.5,58.3c0,42.1 -31.3,67.5 -83.2,67.5zM290.2,266.4h-50.1v78.4h52.3c34.2,0 52.3,-13.7 52.3,-39.5c0,-25.7 -18.6,-38.9 -54.5,-38.9z"></path></g></g></svg>